<svg width="200" height="200" viewBox="0 0 200 200" fill="none" xmlns="http://www.w3.org/2000/svg"><circle cx="100" cy="100" r="100" fill="#1E293B"/><path d="M100 60C78.9543 60 62 76.9543 62 98C62 110.931 68.7064 122.315 79 129.196V145C79 148.314 81.6863 151 85 151H115C118.314 151 121 148.314 121 145V129.196C131.294 122.315 138 110.931 138 98C138 76.9543 121.046 60 100 60Z" fill="#38BDF8"/><circle cx="100" cy="98" r="15" fill="#0EA5E9"/><path d="M85 160H115M85 160V145C85 141.686 87.6863 139 91 139H109C112.314 139 115 141.686 115 145V160M85 160H75M115 160H125" stroke="#38BDF8" stroke-width="8" stroke-linecap="round"/></svg>
